<?xml version="1.0" encoding="UTF-8" standalone="no"?>
<svg width="28px" height="503px" viewBox="0 0 28 503" version="1.1" xmlns="http://www.w3.org/2000/svg" xmlns:xlink="http://www.w3.org/1999/xlink" xmlns:sketch="http://www.bohemiancoding.com/sketch/ns">
    <!-- Generator: Sketch 3.4.4 (17249) - http://www.bohemiancoding.com/sketch -->
    <title>sprite4</title>
    <desc>Created with Sketch.</desc>
    <defs></defs>
    <g id="Page-1" stroke="none" stroke-width="1" fill="none" fill-rule="evenodd" sketch:type="MSPage">
        <g id="sprite4" sketch:type="MSLayerGroup" transform="translate(-1.000000, -2.000000)">
            <g id="Page-1" sketch:type="MSShapeGroup">
                <g id="Sprite2">
                    <g id="Arrow-Right" transform="translate(15.500656, 479.500000) scale(-1, 1) translate(-15.500656, -479.500000) translate(2.000656, 454.000000)" fill="#E1E1E1">
                        <path d="M25.5817759,50.8441254 L0.0640278834,25.42129 L25.5817759,0 L26.9037633,1.39549484 L2.78935591,25.42129 L26.9037633,49.4476003 L25.5817759,50.8441254 L25.5817759,50.8441254 Z" id="Shape"></path>
                    </g>
                    <g id="ArrowLeft" transform="translate(1.000000, 355.000000)" fill="#E1E1E1">
                        <path d="M25.5817759,50.8441254 L0.0640278834,25.42129 L25.5817759,0 L26.9037633,1.39549484 L2.78935591,25.42129 L26.9037633,49.4476003 L25.5817759,50.8441254 L25.5817759,50.8441254 Z" id="Shape"></path>
                    </g>
                    <g id="Photo-Count" transform="translate(1.000000, 303.000000)" fill="#3F3F3F">
                        <g id="Layer_1">
                            <path d="M27,16.4347826 L27,2.34782609 C27,1.05652174 25.9434783,0 24.6521739,0 L7.04347826,0 C5.75217391,0 4.69565217,1.05652174 4.69565217,2.34782609 L4.69565217,16.4347826 C4.69565217,17.726087 5.75217391,18.7826087 7.04347826,18.7826087 L24.6521739,18.7826087 C25.9434783,18.7826087 27,17.726087 27,16.4347826 L27,16.4347826 L27,16.4347826 Z M0,4.69565217 L0,21.1304348 C0,22.4217391 1.05652174,23.4782609 2.34782609,23.4782609 L21.1304348,23.4782609 L21.1304348,21.1304348 L2.34782609,21.1304348 L2.34782609,4.69565217 L0,4.69565217 L0,4.69565217 L0,4.69565217 Z" id="Shape"></path>
                        </g>
                    </g>
                    <g id="Email" transform="translate(7.000000, 279.000000)" fill="#FFFFFF">
                        <g id="email131-copy">
                            <path d="M13.6636364,0.381818182 L0.736363636,0.381818182 C0.609090911,0.381818182 0.5,0.422727273 0.409090909,0.504545455 C0.318181818,0.586363636 0.272727273,0.699999998 0.272727273,0.845454545 L0.272727273,2.29090909 C0.272727273,2.36363636 0.3,2.4 0.354545455,2.4 L7.14545455,6.27272727 L7.20013369,6.3 C7.23636365,6.3 7.26377007,6.29090907 7.28195187,6.27272727 L13.8546791,2.4 C13.8909091,2.38181818 13.9183155,2.37272727 13.9364973,2.37272727 C13.9545454,2.37272727 13.9819519,2.36363636 14.0183155,2.34545455 C14.0910428,2.34545455 14.1274064,2.30909091 14.1274064,2.23636364 L14.1274064,0.845454545 C14.1274064,0.699999998 14.0819073,0.586363636 13.9909091,0.504545455 C13.8999109,0.422727273 13.7909091,0.381818182 13.6636364,0.381818182 L13.6636364,0.381818182 L13.6636364,0.381818182 Z M4.39090909,6.19090909 C4.40909091,6.17272729 4.41818182,6.14541 4.41818182,6.10909091 C4.41818182,6.05441176 4.4,6.02727273 4.36363636,6.02727273 L0.463636364,3.79086453 C0.409090909,3.77268271 0.363636364,3.77268271 0.327272727,3.79086453 C0.290909091,3.79086453 0.272727273,3.81813725 0.272727273,3.87268271 L0.272727273,9.73631907 C0.272727273,9.79099822 0.3,9.82722818 0.354545455,9.84540998 L0.409090909,9.84540998 C0.445454546,9.84540998 0.463636364,9.83631905 0.463636364,9.81813725 L4.39090909,6.19090909 L4.39090909,6.19090909 L4.39090909,6.19090909 Z M9.13636364,6.62727273 C9.11818184,6.57259358 9.07259356,6.56363635 8.99986631,6.6 L7.49986631,7.47272727 C7.31804815,7.58181818 7.12727275,7.58181818 6.92713904,7.47272727 L5.61804813,6.73649733 C5.56350267,6.70013367 5.51804815,6.70013367 5.48168449,6.73649733 L0.490775401,11.372861 C0.472593583,11.3909091 0.463502674,11.4274064 0.463502674,11.4818182 C0.463502674,11.5 0.481684492,11.5273173 0.518048128,11.5636364 C0.627139036,11.6 0.699866313,11.6183155 0.736229945,11.6183155 L13.5271836,11.6183155 C13.5635473,11.6183155 13.6000445,11.6001337 13.6362745,11.5636364 C13.6362745,11.4909091 13.6271836,11.4455882 13.6090018,11.4272727 L9.13636364,6.62727273 L9.13636364,6.62727273 L9.13636364,6.62727273 Z M14.0454545,3.68181818 L13.9364973,3.68181818 L10.2274064,5.89090909 C10.1911765,5.89090909 10.172861,5.91818182 10.172861,5.97272727 C10.1546792,5.99090907 10.16377,6.0181818 10.2,6.05441176 L13.9090909,10.0636364 C13.9454546,10.1 13.9727273,10.1183155 13.9909091,10.1183155 L14.0454545,10.1183155 C14.1001337,10.0636364 14.1274064,10.0274064 14.1274064,10.0092246 L14.1274064,3.79095365 C14.1272727,3.75454545 14.1,3.71818182 14.0454545,3.68181818 L14.0454545,3.68181818 L14.0454545,3.68181818 Z" id="Shape"></path>
                        </g>
                    </g>
                    <g id="Pinterest" transform="translate(8.000000, 247.000000)" fill="#FFFFFF">
                        <g id="share3-copy">
                            <path d="M7.71672245,12.099535 C6.74339656,12.0242746 6.33515625,11.5423549 5.57306548,11.0790923 C5.15375744,13.278404 4.64116443,15.3872768 3.12299107,16.4886719 C2.65435268,13.1639323 3.81108631,10.6673735 4.34771205,8.01649924 C3.43225446,6.47524184 4.45838914,3.37280506 6.38954611,4.13742559 C8.765625,5.07754836 4.33158482,9.86765255 7.30784968,10.4662575 C10.4162946,11.0907924 11.6849702,5.0734375 9.75792411,3.11666666 C6.97297245,0.291555059 1.65225075,3.05247396 2.30651041,7.09787946 C2.46588541,8.08701639 3.48727679,8.38679318 2.71475075,9.75191594 C0.932217264,9.35664063 0.400651041,7.95167411 0.468954613,6.07712054 C0.578999256,3.01010045 3.22544643,0.862332589 5.87853423,0.565085566 C9.23457959,0.189415923 12.3850818,1.79707961 12.8198847,4.95422247 C13.310026,8.51802455 11.3051897,12.3774925 7.71672245,12.099535 L7.71672245,12.099535 L7.71672245,12.099535 Z" id="Shape"></path>
                        </g>
                    </g>
                    <g id="Twitter" transform="translate(6.000000, 219.000000)" fill="#FFFFFF">
                        <g id="twitter-copy">
                            <path d="M15.1089167,3.584 C15.1153333,3.7275 15.1188333,3.87216667 15.1188333,4.01683333 C15.1188333,8.42158333 11.767,13.4989167 5.63441667,13.4989167 C3.752,13.4989167 1.99966667,12.9488333 0.525,12.0026667 C0.78575,12.0335833 1.05116667,12.0493333 1.32008333,12.0493333 C2.88225,12.0493333 4.319,11.5161667 5.46,10.6225 C4.00166667,10.5956667 2.77025,9.632 2.34616667,8.30725 C2.54916667,8.34575 2.75858333,8.36733333 2.97266667,8.36733333 C3.27658333,8.36733333 3.57175,8.32766667 3.85116667,8.25125 C2.32633333,7.94558333 1.17775,6.59866667 1.17775,4.98283333 C1.17775,4.96883333 1.17775,4.95425 1.17833333,4.94083333 C1.6275,5.18991667 2.14141667,5.34041667 2.68741667,5.35733333 C1.79375,4.76058333 1.20516667,3.73975 1.20516667,2.58358333 C1.20516667,1.97225 1.36908333,1.39941667 1.65608333,0.907083333 C3.29933333,2.92425 5.75633333,4.25075 8.526,4.39075 C8.46883333,4.14633333 8.44025,3.89258333 8.44025,3.63066667 C8.44025,1.79025 9.93241667,0.2975 11.7728333,0.2975 C12.7318333,0.2975 13.5969167,0.702333333 14.2059167,1.34983333 C14.966,1.2005 15.6776667,0.924 16.3234167,0.54075 C16.0725833,1.3195 15.5458333,1.97225 14.85575,2.38525 C15.5306667,2.30475 16.1746667,2.12625 16.77025,1.86083333 C16.32575,2.52816667 15.7605,3.11558333 15.1089167,3.584 L15.1089167,3.584 L15.1089167,3.584 Z" id="Shape"></path>
                        </g>
                    </g>
                    <g id="Facebook" transform="translate(11.000000, 187.000000)" fill="#FFFFFF">
                        <g id="facebook2-copy">
                            <path d="M7.8,8.82 L5.3766,8.82 L5.3766,17.4576 L1.7856,17.4576 L1.7856,8.82 L0.0786,8.82 L0.0786,5.7672 L1.7856,5.7672 L1.7856,3.7926 C1.7856,2.3784 2.4576,0.1686 5.4096,0.1686 L8.0706,0.1788 L8.0706,3.1422 L6.1392,3.1422 C5.8248,3.1422 5.3778,3.2994 5.3778,3.9738 L5.3778,5.7678 L8.1138,5.7678 L7.8,8.82 L7.8,8.82 L7.8,8.82 Z" id="Shape"></path>
                        </g>
                    </g>
                    <g id="CloseX" transform="translate(3.000000, 152.000000)" fill="#FFFFFF">
                        <g id="Group">
                            <path d="M12.5,0 C5.5875,0 0,5.5875 0,12.5 C0,19.4125 5.5875,25 12.5,25 C19.4125,25 25,19.4125 25,12.5 C25,5.5875 19.4125,0 12.5,0 L12.5,0 L12.5,0 Z M18.75,16.9875 L16.9875,18.75 L12.5,14.2625 L8.0125,18.75 L6.25,16.9875 L10.7375,12.5 L6.25,8.0125 L8.0125,6.25 L12.5,10.7375 L16.9875,6.25 L18.75,8.0125 L14.2625,12.5 L18.75,16.9875 L18.75,16.9875 L18.75,16.9875 Z" id="Shape"></path>
                        </g>
                    </g>
                    <g id="CancelX" transform="translate(5.000000, 125.000000)" fill="#FFFFFF">
                        <g id="Group">
                            <path d="M19.5175439,2.3995614 L17.6004386,0.48245614 L10,8.08289474 L2.3995614,0.48245614 L0.48245614,2.3995614 L8.08289474,10 L0.48245614,17.6004386 L2.3995614,19.5175439 L10,11.9171053 L17.6004386,19.5175439 L19.5175439,17.6004386 L11.9171053,10 L19.5175439,2.3995614 L19.5175439,2.3995614 Z" id="Shape"></path>
                        </g>
                    </g>
                    <g id="Share" transform="translate(6.000000, 94.000000)" fill="#FFFFFF">
                        <g id="Group">
                            <path d="M15.4724994,14.4901185 C14.6947811,14.4901185 13.998928,14.7971125 13.466805,15.2780698 L6.17058011,11.031319 C6.22174578,10.7959569 6.26267832,10.5605948 6.26267832,10.3149996 C6.26267832,10.0694044 6.22174578,9.83404229 6.17058011,9.59868016 L13.3849399,5.39286188 C13.9375292,5.90451861 14.6640817,6.22174578 15.4724994,6.22174578 C17.1711997,6.22174578 18.5424397,4.85050576 18.5424397,3.15180542 C18.5424397,1.4531051 17.1711997,0.081865076 15.4724994,0.081865076 C13.773799,0.081865076 12.402559,1.4531051 12.402559,3.15180542 C12.402559,3.39740065 12.4434916,3.63276275 12.4946572,3.86812484 L5.2802974,8.07394312 C4.72770814,7.5622864 4.00115559,7.24505923 3.19273797,7.24505923 C1.49403763,7.24505923 0.122797614,8.61629925 0.122797614,10.3149996 C0.122797614,12.0136999 1.49403763,13.3849399 3.19273797,13.3849399 C4.00115559,13.3849399 4.72770814,13.0677127 5.2802974,12.556056 L12.5662892,16.81304 C12.5151235,17.0279358 12.4844241,17.2530648 12.4844241,17.4781938 C12.4844241,19.1257284 13.8249647,20.466269 15.4724994,20.466269 C17.120034,20.466269 18.4605747,19.1257284 18.4605747,17.4781938 C18.4605747,15.830659 17.120034,14.4901185 15.4724994,14.4901185 L15.4724994,14.4901185 L15.4724994,14.4901185 Z" id="Shape"></path>
                        </g>
                    </g>
                    <g id="Grid" transform="translate(4.000000, 65.000000)" fill="#FFFFFF">
                        <g id="Group" transform="translate(0.120103, 0.000000)">
                            <path d="M0.586405211,9.10584964 L9.55495549,9.10584964 L9.55495549,0 L0.586405211,0 L0.586405211,9.10584964 L0.586405211,9.10584964 L0.586405211,9.10584964 Z M0.586405211,19.7293409 L9.55495549,19.7293409 L9.55495549,10.6234912 L0.586405211,10.6234912 L0.586405211,19.7293409 L0.586405211,19.7293409 L0.586405211,19.7293409 Z M11.3486655,19.7293409 L20.3172158,19.7293409 L20.3172158,10.6234912 L11.3486655,10.6234912 L11.3486655,19.7293409 L11.3486655,19.7293409 L11.3486655,19.7293409 Z M11.3486655,9.10584964 L20.3172158,9.10584964 L20.3172158,0 L11.3486655,0 L11.3486655,9.10584964 L11.3486655,9.10584964 L11.3486655,9.10584964 Z" id="Shape"></path>
                        </g>
                    </g>
                    <g id="ArrowDown" transform="translate(2.000000, 32.000000)" fill="#FFFFFF">
                        <g id="Group">
                            <path d="M25,12.5 L22.796875,10.296875 L14.0625,19.015625 L14.0625,0 L10.9375,0 L10.9375,19.015625 L2.21875,10.28125 L0,12.5 L12.5,25 L25,12.5 L25,12.5 L25,12.5 Z" id="Shape"></path>
                        </g>
                    </g>
                    <g id="ArrowUp" transform="translate(2.000000, 2.000000)" fill="#FFFFFF">
                        <g id="Group">
                            <path d="M0,12.5 L2.203125,14.703125 L10.9375,5.984375 L10.9375,25 L14.0625,25 L14.0625,5.984375 L22.78125,14.71875 L25,12.5 L12.5,0 L0,12.5 L0,12.5 L0,12.5 Z" id="Shape"></path>
                        </g>
                    </g>
                </g>
            </g>
        </g>
    </g>
</svg>