<?xml version="1.0" encoding="UTF-8" standalone="no"?>
<svg width="170px" height="15px" viewBox="0 0 170 15" version="1.1" xmlns="http://www.w3.org/2000/svg" xmlns:xlink="http://www.w3.org/1999/xlink">
    <g id="Page-1" stroke="none" stroke-width="1" fill="none" fill-rule="evenodd">
        <g id="Artboard-1" fill="#FFFFFF">
            <g id="Imported-Layers-Copy">
                <path d="M78.9724375,12.6482143 C79.0813437,12.3573214 79.0399062,12.0016071 79.2189375,12.0171429 C79.3416562,12.0283929 79.3692812,12.4264286 79.4229375,12.6214286 L79.4229375,12.9230357 L78.9724375,12.9230357 L78.9724375,12.6482143 L78.9724375,12.6482143 Z M89.4003437,12.51 C89.4810937,12.5641071 89.4513437,12.7430357 89.4810937,12.84 C89.4810937,12.84 89.4810937,12.8673214 89.413625,12.9230357 L80.2830312,12.9230357 L80.2118437,12.8544643 L80.2118437,12.4821429 C80.7855937,12.3883929 80.365375,11.685 80.909375,11.685 C81.2499062,11.685 81.2908125,11.9325 81.4815312,12.13875 L88.213,12.13875 C88.47225,12.13875 88.3325312,11.685 88.8138437,11.685 C88.9360312,11.685 89.0454687,11.7669643 89.12675,11.8633929 C89.1655312,12.1119643 89.196875,12.3433929 89.4003437,12.51 L89.4003437,12.51 Z M89.8763437,8.62071429 L89.8763437,4.72875 C89.8763437,4.48285714 89.8890937,4.44107143 89.4513437,4.44107143 L89.4513437,8.92339286 C89.859875,8.92339286 89.8763437,8.86821429 89.8763437,8.62071429 L89.8763437,8.62071429 Z M84.167,6.79178571 C84.167,7.1625 84.4926562,7.4925 84.85975,7.4925 C85.2406562,7.4925 85.5556875,7.1625 85.5556875,6.79178571 C85.5556875,6.40875 85.2406562,6.07875 84.85975,6.07875 C84.4926562,6.07875 84.167,6.40875 84.167,6.79178571 L84.167,6.79178571 Z M84.8735625,8.41392857 C84.0304687,8.41392857 83.3345312,7.8225 83.2527187,6.99910714 L82.6672812,6.99910714 L82.6672812,8.62071429 C82.6672812,8.82589286 82.843125,9.00482143 83.04925,9.00482143 L86.6585625,9.00482143 C86.8774375,9.00482143 87.0532812,8.82589286 87.0532812,8.62071429 L87.0532812,4.85410714 C87.0532812,4.65 86.8774375,4.47107143 86.6585625,4.47107143 L83.04925,4.47107143 C82.843125,4.47107143 82.6672812,4.65 82.6672812,4.85410714 L82.6672812,6.57267857 L83.2633437,6.57267857 C83.3738437,5.775 84.0549062,5.15678571 84.8735625,5.15678571 C85.76075,5.15678571 86.4827187,5.89982143 86.4827187,6.79178571 C86.4827187,7.67142857 85.76075,8.41392857 84.8735625,8.41392857 L84.8735625,8.41392857 Z M88.6098437,9.73232143 L88.6098437,3.76714286 C88.6098437,3.34125 88.253375,2.98446429 87.8310312,2.98446429 L81.9171562,2.98446429 C81.49375,2.98446429 81.1394062,3.34125 81.1394062,3.76714286 L81.1394062,6.57267857 L81.8204687,6.57267857 L81.8204687,4.30607143 C81.8204687,3.93321429 82.1349687,3.61821429 82.501,3.61821429 L87.2030937,3.61821429 C87.5728437,3.61821429 87.8862812,3.93321429 87.8862812,4.30607143 L87.8862812,9.15696429 C87.8862812,9.52821429 87.5728437,9.84160714 87.2030937,9.84160714 L82.501,9.84160714 C82.1349687,9.84160714 81.8204687,9.52821429 81.8204687,9.15696429 L81.8204687,6.99910714 L81.342875,6.99910714 C81.2743437,6.99910714 81.2100625,6.99910714 81.1394062,7.01196429 L81.1394062,9.73232143 C81.1394062,10.1598214 81.49375,10.5176786 81.9171562,10.5176786 L87.8310312,10.5176786 C88.253375,10.5176786 88.6098437,10.1598214 88.6098437,9.73232143 L88.6098437,9.73232143 Z M89.9868437,4.03071429 C90.246625,4.03071429 90.4777187,4.26160714 90.4777187,4.52357143 L90.4777187,8.82428571 C90.4777187,9.10017857 90.246625,9.31982143 89.9868437,9.31982143 L89.4513437,9.31982143 L89.4513437,9.67928571 C89.4513437,10.60125 88.7054687,11.3555357 87.79225,11.3555357 L81.9447812,11.3555357 C81.0289062,11.3555357 80.2819687,10.60125 80.2819687,9.67928571 L80.2819687,7.24660714 C79.7523125,7.59 79.4229375,8.16803571 79.4229375,8.85375 L79.4229375,11.4128571 C79.4229375,11.5483929 79.6115312,11.5633929 79.6115312,11.7010714 C79.6115312,11.8933929 79.3012812,11.9051786 79.19025,11.9051786 C79.0813437,11.9051786 78.8497187,11.8516071 78.8497187,11.7144643 C78.8497187,11.57625 79.0399062,11.5483929 79.0399062,11.4128571 L79.0399062,8.63410714 C79.0399062,7.78232143 79.5584062,7.05428571 80.2819687,6.73767857 L80.2819687,3.82392857 C80.2819687,2.90303571 81.0289062,2.14821429 81.9447812,2.14821429 L87.79225,2.14821429 C88.7054687,2.14821429 89.4513437,2.90303571 89.4513437,3.82392857 L89.4513437,4.03071429 L89.9868437,4.03071429 L89.9868437,4.03071429 Z" id="Fill-1"></path>
                <path d="M0.13971875,0.501964286 L10.0135313,0.500892857 C11.8070313,0.500892857 13.3821875,0.796071429 14.7400625,1.38482143 C16.0963438,1.97517857 17.1588438,2.81517857 17.928625,3.90482143 C18.697875,4.995 19.0819688,6.22232143 19.0819688,7.58625 C19.0819688,9.00375 18.7302813,10.2358929 18.0279688,11.2832143 C17.3245938,12.3321429 16.2748438,13.1678571 14.8765938,13.7871429 C13.4794063,14.4107143 11.9775625,14.7214286 10.37425,14.7230357 L0.13971875,14.7230357 L0.13971875,13.8214286 L1.66334375,13.8214286 C2.03521875,13.8214286 2.31678125,13.7426786 2.505375,13.5857143 C2.6945,13.4292857 2.79065625,13.2096429 2.79065625,12.9278571 L2.79065625,2.2275 C2.79065625,1.94035714 2.69184375,1.73035714 2.4936875,1.59857143 C2.295,1.46785714 1.95871875,1.40303571 1.4906875,1.40303571 L0.13971875,1.40303571 L0.13971875,0.501964286 L0.13971875,0.501964286 Z M9.1598125,13.8214286 C10.2935,13.8214286 11.2991563,13.6001786 12.17625,13.1571429 C13.053875,12.7157143 13.6865938,12.1119643 14.0765313,11.3464286 C14.4659375,10.5814286 14.6593125,9.39160714 14.6593125,7.785 C14.6593125,6.09267857 14.4298125,4.79625 13.9692188,3.89571429 C13.51075,2.99625 12.8875938,2.35553571 12.101875,1.97410714 C11.3166875,1.59375 10.1612188,1.4025 8.63865625,1.4025 C7.8019375,1.4025 7.2791875,1.45875 7.06828125,1.56642857 C6.85790625,1.67464286 6.751125,1.87339286 6.751125,2.16214286 L6.7521875,12.9171429 C6.7521875,13.2380357 6.836125,13.4683929 7.00665625,13.6092857 C7.17453125,13.7507143 7.44759375,13.8214286 7.8189375,13.8214286 L9.1598125,13.8214286 L9.1598125,13.8214286 Z" id="Fill-2"></path>
                <path d="M28.4043438,0.417857143 L35.162375,12.93 C35.3568125,13.2825 35.5666563,13.5214286 35.7945625,13.6467857 C36.0054688,13.7657143 36.280125,13.8267857 36.618,13.8348214 C36.618,13.9317857 36.6169375,14.7203571 36.6169375,14.7203571 L28.9,14.7203571 L28.9,13.8358929 L29.6915625,13.8358929 C30.3168438,13.8358929 30.7460938,13.7839286 30.9830313,13.6767857 C31.2178438,13.5685714 31.3347188,13.4255357 31.3347188,13.2498214 C31.3347188,13.1121429 31.2874375,12.9519643 31.1891563,12.7682143 L29.7951563,10.18125 L23.0493438,10.18125 L22.4070625,11.3619643 C22.1387813,11.8532143 22.0049063,12.2191071 22.0049063,12.4585714 C22.0049063,12.8667857 22.199875,13.1989286 22.5898125,13.4544643 C22.9802813,13.7105357 23.5136563,13.8380357 24.1878125,13.8380357 L24.7610313,13.8358929 L24.7610313,14.7203571 L17.9185313,14.7203571 L17.9185313,13.8380357 L18.309,13.8380357 C18.748875,13.8380357 19.1350938,13.7303571 19.46925,13.5139286 C19.9404688,13.2133929 20.3075625,12.8260714 20.5684063,12.3530357 L27.0326563,0.417857143 L28.4043438,0.417857143 L28.4043438,0.417857143 Z M26.435,3.94339286 L23.5535,9.25017857 L29.2947188,9.25017857 L26.435,3.94339286 L26.435,3.94339286 Z" id="Fill-3"></path>
                <path d="M36.8108438,0.500357143 L46.1921875,0.499821429 L46.1921875,1.40142857 L44.4948438,1.40142857 C44.129875,1.40142857 43.8647813,1.45714286 43.7000938,1.56910714 C43.5359375,1.68214286 43.4525313,1.84607143 43.4525313,2.06303571 L43.4535938,13.06125 C43.4535938,13.3178571 43.5401875,13.4983929 43.7139063,13.6060714 C43.9370313,13.7475 44.2584375,13.8208929 44.6807813,13.8208929 L46.1921875,13.81875 L46.1921875,14.7192857 L37.8372188,14.7203571 L37.831375,13.8208929 L38.2473438,13.8208929 C38.7424688,13.8208929 39.0909688,13.7560714 39.293375,13.6275 C39.4936563,13.4983929 39.5967188,13.3114286 39.5967188,13.06125 L39.5967188,2.18946429 C39.5967188,1.91892857 39.5026875,1.72232143 39.3156875,1.59375 C39.1308125,1.46571429 38.8418125,1.40142857 38.4455,1.4025 L36.8108438,1.4025 L36.8108438,0.500357143" id="Fill-4"></path>
                <path d="M47.5123437,1.40142857 L47.5123437,0.499821429 L56.922375,0.499821429 L56.922375,1.40142857 L55.337125,1.40142857 C54.8807812,1.40142857 54.5630937,1.46678571 54.3814062,1.60285714 C54.1991875,1.73785714 54.1083437,1.95428571 54.1083437,2.25642857 L54.1083437,12.8201786 C54.1083437,13.2492857 54.1965312,13.5214286 54.37025,13.6419643 C54.5429062,13.7598214 54.9530312,13.81875 55.5985,13.81875 L58.239875,13.81875 C59.2242812,13.81875 60.1428125,13.4571429 60.9949375,12.735 C61.8454687,12.0107143 62.4989062,10.85625 62.9541875,9.26946429 L64.0703437,9.26946429 L63.6538437,14.7192857 L47.5123437,14.7192857 L47.5123437,13.81875 L49.1273437,13.81875 C49.4832812,13.81875 49.752625,13.7475 49.9337812,13.6060714 C50.1170625,13.4667857 50.207375,13.2691071 50.207375,13.0135714 L50.207375,2.15035714 C50.207375,1.88839286 50.113875,1.69714286 49.9279375,1.57821429 C49.7404062,1.46089286 49.4195312,1.40142857 48.9647812,1.40142857 L47.5123437,1.40142857" id="Fill-5"></path>
                <path d="M60.649625,0.499821429 L69.7775625,0.49875 L69.7775625,1.39982143 L68.5158438,1.39982143 C68.070125,1.39982143 67.7609375,1.44428571 67.5861563,1.52946429 C67.4145625,1.61625 67.3258438,1.72928571 67.3258438,1.87125 C67.3258438,2.03142857 67.4023438,2.21357143 67.5495,2.41875 L71.3718438,7.51071429 L74.0679375,3.37875 C74.2926563,3.03964286 74.4058125,2.72571429 74.4058125,2.43803571 C74.4058125,2.11607143 74.2591875,1.86375 73.9680625,1.67946429 C73.6790625,1.49357143 73.2375938,1.39982143 72.6463125,1.39982143 L72.0869063,1.39982143 L72.0869063,0.49875 L79.1727188,0.49875 L79.1727188,1.39982143 C78.35725,1.41321429 77.7000938,1.53910714 77.2055,1.78017857 C76.7087813,2.01964286 76.2859063,2.40428571 75.9395313,2.93625 L72.25,8.57464286 L72.2505313,13.0408929 C72.2505313,13.3039286 72.3440313,13.4983929 72.5305,13.6269643 C72.7164375,13.7560714 73.0075625,13.81875 73.4044063,13.81875 L75.3025625,13.81875 L75.3025625,14.7192857 L65.2507813,14.7192857 L65.2507813,13.81875 L67.1383125,13.81875 C67.5680938,13.81875 67.870375,13.7560714 68.0440938,13.6323214 C68.21675,13.5053571 68.3054688,13.3103571 68.3054688,13.0408929 L68.3044063,9.07232143 L63.365375,2.49535714 C63.0524688,2.07375 62.719375,1.785 62.3676875,1.63232143 C62.0154688,1.47696429 61.5771875,1.40089286 61.047,1.40089286 L60.649625,1.40089286 L60.649625,0.499821429" id="Fill-6"></path>
                <path d="M91.9901875,0.49875 L97.6766875,0.49875 L107.610531,10.2433929 L107.610531,3.62785714 C107.610531,2.97214286 107.369875,2.44875 106.889625,2.05660714 C106.409906,1.66446429 105.728313,1.44428571 104.841656,1.39875 L104.841656,0.497678571 L111.540719,0.497142857 L111.540719,1.39875 C110.602531,1.47535714 109.936875,1.69232143 109.531,2.04803571 C109.123,2.40321429 108.920594,2.93035714 108.920594,3.62785714 L108.921656,14.71875 L107.500563,14.71875 L96.188125,3.4875 L96.188125,11.2628571 C96.188125,12.1526786 96.4510938,12.8003571 96.9775625,13.2080357 C97.5008438,13.6146429 98.1542813,13.81875 98.9320313,13.81875 L99.2401563,13.81875 L99.2401563,14.71875 L91.840375,14.7192857 L91.840375,13.81875 L92.3498438,13.81875 C93.0739375,13.81875 93.6838125,13.59375 94.18,13.1448214 C94.6756563,12.6948214 94.921625,12.1205357 94.921625,11.415 L94.921625,2.23017857 C94.369125,1.67571429 93.6652188,1.39982143 92.805125,1.39982143 L91.9901875,1.39982143 L91.9901875,0.49875" id="Fill-7"></path>
                <path d="M112.397625,0.497142857 L128.377625,0.497142857 L128.733562,5.4675 L127.646094,5.4675 C127.390031,4.29642857 127.069687,3.45267857 126.683469,2.93839286 C126.299375,2.42464286 125.795219,2.03839286 125.168344,1.78071429 C124.544125,1.52625 123.725469,1.39875 122.713437,1.39875 L120.205937,1.39875 C119.815469,1.39875 119.533375,1.45714286 119.360187,1.57553571 C119.184875,1.69285714 119.100937,1.85892857 119.100937,2.07 L119.100937,6.98464286 L119.955719,6.98464286 C120.94225,6.98464286 121.705125,6.76607143 122.247531,6.32946429 C122.789406,5.89339286 123.110812,5.18946429 123.2075,4.22196429 L124.325781,4.22196429 L124.325781,10.845 L123.2075,10.845 C123.133656,9.74785714 122.824469,8.97642857 122.279937,8.52857143 C121.732219,8.08071429 120.907187,7.85464286 119.806437,7.85464286 L119.100937,7.85464286 L119.100937,13.1153571 C119.100937,13.3451786 119.184875,13.5091071 119.360187,13.605 C119.625812,13.7458929 120.005656,13.8171429 120.50025,13.8171429 L122.713437,13.8171429 C124.2275,13.8171429 125.46425,13.4426786 126.424219,12.6932143 C127.383656,11.9416071 127.98025,10.8101786 128.214,9.29625 L129.329094,9.29625 L129.060812,14.7176786 L112.397625,14.71875 L112.397625,13.8171429 L114.0445,13.8171429 C114.414781,13.8171429 114.697937,13.7448214 114.892375,13.5969643 C115.084156,13.4485714 115.182969,13.2498214 115.182969,13.0007143 L115.182969,2.07267857 C115.182969,1.84017857 115.084156,1.67142857 114.892375,1.56214286 C114.697937,1.45232143 114.349437,1.39875 113.846344,1.39875 L112.397625,1.39875 L112.397625,0.497142857" id="Fill-8"></path>
                <path d="M129.618625,0.416785714 L136.915344,0.416785714 L136.915344,1.30767857 L136.227375,1.30767857 C135.794406,1.30767857 135.503281,1.34678571 135.350281,1.42660714 C135.197813,1.50535714 135.125031,1.62375 135.125031,1.78071429 C135.125031,1.89535714 135.152125,2.025 135.2095,2.17017857 L138.805531,10.4566071 L141.93725,3.22607143 L141.413969,2.01857143 C141.299219,1.76517857 141.13825,1.59107143 140.935844,1.49625 C140.664906,1.37035714 140.313219,1.30767857 139.869094,1.30767857 L138.986156,1.30767857 L138.986156,0.416785714 L147.375125,0.416785714 L147.375125,1.30714286 L146.597906,1.30714286 C146.036906,1.30714286 145.652813,1.35589286 145.451469,1.455 C145.25225,1.55732143 145.150781,1.70303571 145.150781,1.89642857 C145.150781,1.97785714 145.1715,2.06464286 145.211875,2.15732143 L148.795688,10.4566071 L151.794594,3.1575 C151.892875,2.93410714 151.940688,2.72035714 151.940688,2.5125 C151.940688,2.12571429 151.806813,1.82892857 151.54225,1.62053571 C151.277687,1.41214286 150.926,1.30714286 150.491969,1.30714286 L149.980375,1.30714286 L149.980375,0.416785714 L155.890531,0.41625 L155.890531,1.30714286 C155.237094,1.31946429 154.714344,1.43839286 154.327063,1.66178571 C153.935,1.88678571 153.650781,2.22160714 153.472281,2.66303571 L148.455156,14.7176786 L146.942688,14.7176786 L142.677813,4.85142857 L138.403906,14.7176786 L136.884,14.7176786 L131.356875,2.01910714 C131.241594,1.75285714 131.092313,1.56910714 130.90425,1.46357143 C130.718844,1.36071429 130.480844,1.30767857 130.189188,1.30767857 L129.618625,1.30767857 L129.618625,0.416785714" id="Fill-9"></path>
                <path d="M166.675437,1.68696429 L167.793187,0.45 L168.661781,0.45 L168.762187,5.23071429 L167.676844,5.23071429 C167.116375,3.85607143 166.316312,2.82964286 165.283031,2.14607143 C164.248687,1.46303571 163.103312,1.11964286 161.851687,1.11964286 C160.782812,1.11964286 159.916875,1.34678571 159.246437,1.79839286 C158.577062,2.25 158.242906,2.79053571 158.242906,3.42 C158.242906,3.79178571 158.370406,4.13571429 158.637094,4.4475 C158.901656,4.75928571 159.327187,5.02446429 159.916875,5.24517857 C160.502844,5.46696429 161.534531,5.69732143 163.00875,5.93732143 C164.72575,6.21803571 165.917875,6.47035714 166.578219,6.69482143 C167.623719,7.05428571 168.409437,7.53214286 168.932187,8.12625 C169.455469,8.71982143 169.715781,9.44464286 169.715781,10.2948214 C169.715781,11.5698214 169.148937,12.5871429 168.017375,13.3451786 C166.653656,14.2585714 164.967469,14.7155357 162.952437,14.7155357 C161.098375,14.7155357 159.405281,14.2125 157.873687,13.2085714 L156.46375,14.5703571 L155.580281,14.5703571 L155.580281,9.45535714 L156.635875,9.45535714 C157.685625,12.3792857 159.818062,13.8433929 163.030531,13.8433929 C164.34325,13.8433929 165.364844,13.6055357 166.093719,13.13625 C166.824719,12.6680357 167.188094,12.0792857 167.188094,11.3764286 C167.188094,10.8830357 167.027125,10.4710714 166.704656,10.14 C166.385906,9.80571429 165.889187,9.53571429 165.21875,9.33053571 C164.848469,9.21857143 163.937375,9.04125 162.48175,8.79910714 C160.51825,8.46160714 159.121062,8.11553571 158.277437,7.75714286 C157.439656,7.39928571 156.825531,6.96107143 156.429219,6.44142857 C156.038219,5.92125 155.841125,5.28857143 155.841125,4.54178571 C155.841125,3.285 156.385656,2.26017857 157.474187,1.46571429 C158.560594,0.671785714 160.020469,0.276428571 161.847437,0.276428571 C163.606406,0.276428571 165.2145,0.746785714 166.675437,1.68696429" id="Fill-10"></path>
            </g>
        </g>
    </g>
</svg>