<?xml version="1.0" encoding="UTF-8" standalone="no"?>
<svg width="50px" height="450px" viewBox="0 0 50 450" version="1.1" xmlns="http://www.w3.org/2000/svg" xmlns:xlink="http://www.w3.org/1999/xlink" xmlns:sketch="http://www.bohemiancoding.com/sketch/ns">
    <!-- Generator: Sketch 3.4.2 (15857) - http://www.bohemiancoding.com/sketch -->
    <title>Sprite</title>
    <desc>Created with Sketch.</desc>
    <defs></defs>

    <g id="Page-1" stroke="none" stroke-width="1" fill="none" fill-rule="evenodd" sketch:type="MSPage">
        <g id="Sprite" sketch:type="MSArtboardGroup">
            <!-- id="ArrowLeft" -->
            <g  sketch:type="MSLayerGroup" transform="translate(16.069353, 131.259717) scale(-1, 1) translate(-16.069353, -131.259717) translate(0.000000, 100.000000)" fill="#E1E1E1">
                <path d="M30.3184047,60.2582393 L0.0758830541,30.1282039 L30.3184047,0 L31.8851666,1.6538796 L3.30582293,30.1282039 L31.8851666,58.6031386 L30.3184047,60.2582393 Z" id="Shape" sketch:type="MSShapeGroup"></path>
            </g>
            <!-- id="ArrowRight" -->
            <g   sketch:type="MSLayerGroup" fill="#E1E1E1">
                <path d="M30.3184047,60.2582393 L0.0758830541,30.1282039 L30.3184047,0 L31.8851666,1.6538796 L3.30582293,30.1282039 L31.8851666,58.6031386 L30.3184047,60.2582393 Z" id="Shape" sketch:type="MSShapeGroup"></path>
            </g>
             <!-- id="Pinterest" -->
            <g sketch:type="MSLayerGroup" transform="translate(4.000000, 350.000000)" fill="#FFFFFF">
                <g id="share3-copy" sketch:type="MSShapeGroup">
                    <path d="M12.7098958,19.9286458 C11.1067708,19.8046875 10.434375,19.0109375 9.17916667,18.2479167 C8.48854167,21.8703125 7.64427083,25.34375 5.14375,27.1578125 C4.371875,21.6817708 6.27708333,17.5697917 7.1609375,13.2036458 C5.653125,10.6651042 7.34322917,5.55520833 10.5239583,6.81458333 C14.4375,8.36302083 7.134375,16.2526042 12.0364583,17.2385417 C17.15625,18.2671875 19.2458333,8.35625 16.071875,5.13333333 C11.4848958,0.480208333 2.72135417,5.02760417 3.79895833,11.690625 C4.06145833,13.3197917 5.74375,13.8135417 4.47135417,16.0619792 C1.53541667,15.4109375 0.659895833,13.096875 0.772395833,10.009375 C0.953645833,4.9578125 5.3125,1.4203125 9.68229167,0.930729167 C15.2098958,0.311979167 20.3989583,2.95989583 21.1151042,8.15989583 C21.9223958,14.0296875 18.6203125,20.3864583 12.7098958,19.9286458 L12.7098958,19.9286458 Z" id="Shape"></path>
                </g>
            </g>
            <!-- id="Twitter" -->
            <g sketch:type="MSLayerGroup" transform="translate(0.000000, 300.000000)" fill="#FFFFFF">
                <g id="twitter-copy" sketch:type="MSShapeGroup">
                    <path d="M25.901,6.144 C25.912,6.39 25.918,6.638 25.918,6.886 C25.918,14.437 20.172,23.141 9.659,23.141 C6.432,23.141 3.428,22.198 0.9,20.576 C1.347,20.629 1.802,20.656 2.263,20.656 C4.941,20.656 7.404,19.742 9.36,18.21 C6.86,18.164 4.749,16.512 4.022,14.241 C4.37,14.307 4.729,14.344 5.096,14.344 C5.617,14.344 6.123,14.276 6.602,14.145 C3.988,13.621 2.019,11.312 2.019,8.542 C2.019,8.518 2.019,8.493 2.02,8.47 C2.79,8.897 3.671,9.155 4.607,9.184 C3.075,8.161 2.066,6.411 2.066,4.429 C2.066,3.381 2.347,2.399 2.839,1.555 C5.656,5.013 9.868,7.287 14.616,7.527 C14.518,7.108 14.469,6.673 14.469,6.224 C14.469,3.069 17.027,0.51 20.182,0.51 C21.826,0.51 23.309,1.204 24.353,2.314 C25.656,2.058 26.876,1.584 27.983,0.927 C27.553,2.262 26.65,3.381 25.467,4.089 C26.624,3.951 27.728,3.645 28.749,3.19 C27.987,4.334 27.018,5.341 25.901,6.144 L25.901,6.144 Z" id="Shape"></path>
                </g>
            </g>
            <!-- id="Facebook" -->
            <g sketch:type="MSLayerGroup" transform="translate(8.000000, 250.000000)" fill="#FFFFFF">
                <g id="facebook2-copy" sketch:type="MSShapeGroup">
                    <path d="M13,14.7 L8.961,14.7 L8.961,29.096 L2.976,29.096 L2.976,14.7 L0.131,14.7 L0.131,9.612 L2.976,9.612 L2.976,6.321 C2.976,3.964 4.096,0.281 9.016,0.281 L13.451,0.298 L13.451,5.237 L10.232,5.237 C9.708,5.237 8.963,5.499 8.963,6.623 L8.963,9.613 L13.523,9.613 L13,14.7 L13,14.7 Z" id="Shape"></path>
                </g>
            </g>
            <!-- id="Email" -->
            <g id="Email" sketch:type="MSLayerGroup" transform="translate(2.000000, 400.000000)" fill="#FFFFFF">
                <g id="email131-copy" sketch:type="MSShapeGroup">
                    <path d="M25.05,0.7 L1.35,0.7 C1.11666667,0.7 0.916666667,0.775 0.75,0.925 C0.583333333,1.075 0.5,1.28333333 0.5,1.55 L0.5,4.2 C0.5,4.33333333 0.55,4.4 0.65,4.4 L13.1,11.5 L13.2002451,11.55 C13.2666667,11.55 13.3169118,11.5333333 13.3502451,11.5 L25.4002451,4.4 C25.4666667,4.36666667 25.5169118,4.35 25.5502451,4.35 C25.5833333,4.35 25.6335784,4.33333333 25.7002451,4.3 C25.8335784,4.3 25.9002451,4.23333333 25.9002451,4.1 L25.9002451,1.55 C25.9002451,1.28333333 25.8168301,1.075 25.65,0.925 C25.4831699,0.775 25.2833333,0.7 25.05,0.7 L25.05,0.7 Z M8.05,11.35 C8.08333333,11.3166667 8.1,11.266585 8.1,11.2 C8.1,11.0997549 8.06666667,11.05 8,11.05 L0.85,6.9499183 C0.75,6.91658497 0.666666667,6.91658497 0.6,6.9499183 C0.533333333,6.9499183 0.5,6.9999183 0.5,7.0999183 L0.5,17.8499183 C0.5,17.9501634 0.55,18.016585 0.65,18.0499183 L0.75,18.0499183 C0.816666667,18.0499183 0.85,18.0332516 0.85,17.9999183 L8.05,11.35 L8.05,11.35 Z M16.75,12.15 C16.7166667,12.0497549 16.6330882,12.0333333 16.4997549,12.1 L13.7497549,13.7 C13.4164216,13.9 13.0666667,13.9 12.6997549,13.7 L10.2997549,12.3502451 C10.1997549,12.2835784 10.1164216,12.2835784 10.0497549,12.3502451 L0.899754902,20.8502451 C0.866421569,20.8833333 0.849754902,20.9502451 0.849754902,21.05 C0.849754902,21.0833333 0.883088235,21.133415 0.949754902,21.2 C1.1497549,21.2666667 1.28308824,21.3002451 1.3497549,21.3002451 L24.7998366,21.3002451 C24.8665033,21.3002451 24.933415,21.2669118 24.9998366,21.2 C24.9998366,21.0666667 24.9831699,20.9835784 24.9498366,20.95 L16.75,12.15 L16.75,12.15 Z M25.75,6.75 L25.5502451,6.75 L18.7502451,10.8 C18.6838235,10.8 18.6502451,10.85 18.6502451,10.95 C18.6169118,10.9833333 18.6335784,11.0333333 18.7,11.0997549 L25.5,18.45 C25.5666667,18.5166667 25.6166667,18.5502451 25.65,18.5502451 L25.75,18.5502451 C25.8502451,18.45 25.9002451,18.3835784 25.9002451,18.3502451 L25.9002451,6.9500817 C25.9,6.88333333 25.85,6.81666667 25.75,6.75 L25.75,6.75 Z" id="Shape"></path>
                </g>
            </g>
             <!-- id="Grid" -->
            <g sketch:type="MSLayerGroup" transform="translate(0.000000, 200.000000)" fill="#FFFFFF">
                <g id="Group" transform="translate(0.120103, 0.000000)" sketch:type="MSShapeGroup">
                    <path d="M0.586405211,9.10584964 L9.55495549,9.10584964 L9.55495549,0 L0.586405211,0 L0.586405211,9.10584964 L0.586405211,9.10584964 Z M0.586405211,19.7293409 L9.55495549,19.7293409 L9.55495549,10.6234912 L0.586405211,10.6234912 L0.586405211,19.7293409 L0.586405211,19.7293409 Z M11.3486655,19.7293409 L20.3172158,19.7293409 L20.3172158,10.6234912 L11.3486655,10.6234912 L11.3486655,19.7293409 L11.3486655,19.7293409 Z M11.3486655,9.10584964 L20.3172158,9.10584964 L20.3172158,0 L11.3486655,0 L11.3486655,9.10584964 L11.3486655,9.10584964 Z" id="Shape"></path>
                </g>
            </g>
        </g>
    </g>
</svg>