<?xml version="1.0" encoding="UTF-8" standalone="no"?>
<svg width="175px" height="445px" viewBox="0 0 175 445" version="1.1" xmlns="http://www.w3.org/2000/svg" xmlns:xlink="http://www.w3.org/1999/xlink" xmlns:sketch="http://www.bohemiancoding.com/sketch/ns">
    <!-- Generator: Sketch 3.4.3 (16618) - http://www.bohemiancoding.com/sketch -->
    <title>Sprite2</title>
    <desc>Created with Sketch.</desc>
    <defs>
        <path id="path-1" d="M0,0.459435897 L169.854878,0.459435897 L169.854878,14.8205128 L0,14.8205128 L0,0.459435897 Z"></path>
        <path id="path-3" d="M0,0.459435897 L169.854878,0.459435897 L169.854878,14.8205128 L0,14.8205128"></path>
    </defs>
    <g id="Page-1" stroke="none" stroke-width="1" fill="none" fill-rule="evenodd" sketch:type="MSPage">
        <g id="Sprite2" sketch:type="MSArtboardGroup">
            <g id="Photo-Count" sketch:type="MSLayerGroup" transform="translate(1.000000, 422.000000)" fill="#FFFFFF">
                <g id="Layer_1" sketch:type="MSShapeGroup">
                    <path d="M23,14 L23,2 C23,0.9 22.1,0 21,0 L6,0 C4.9,0 4,0.9 4,2 L4,14 C4,15.1 4.9,16 6,16 L21,16 C22.1,16 23,15.1 23,14 L23,14 Z M0,4 L0,18 C0,19.1 0.9,20 2,20 L18,20 L18,18 L2,18 L2,4 L0,4 L0,4 Z" id="Shape"></path>
                </g>
            </g>
            <g id="Email" sketch:type="MSLayerGroup" transform="translate(2.000000, 395.000000)" fill="#FFFFFF">
                <g id="email131-copy" sketch:type="MSShapeGroup">
                    <path d="M25.05,0.7 L1.35,0.7 C1.11666667,0.7 0.916666667,0.775 0.75,0.925 C0.583333333,1.075 0.5,1.28333333 0.5,1.55 L0.5,4.2 C0.5,4.33333333 0.55,4.4 0.65,4.4 L13.1,11.5 L13.2002451,11.55 C13.2666667,11.55 13.3169118,11.5333333 13.3502451,11.5 L25.4002451,4.4 C25.4666667,4.36666667 25.5169118,4.35 25.5502451,4.35 C25.5833333,4.35 25.6335784,4.33333333 25.7002451,4.3 C25.8335784,4.3 25.9002451,4.23333333 25.9002451,4.1 L25.9002451,1.55 C25.9002451,1.28333333 25.8168301,1.075 25.65,0.925 C25.4831699,0.775 25.2833333,0.7 25.05,0.7 L25.05,0.7 Z M8.05,11.35 C8.08333333,11.3166667 8.1,11.266585 8.1,11.2 C8.1,11.0997549 8.06666667,11.05 8,11.05 L0.85,6.9499183 C0.75,6.91658497 0.666666667,6.91658497 0.6,6.9499183 C0.533333333,6.9499183 0.5,6.9999183 0.5,7.0999183 L0.5,17.8499183 C0.5,17.9501634 0.55,18.016585 0.65,18.0499183 L0.75,18.0499183 C0.816666667,18.0499183 0.85,18.0332516 0.85,17.9999183 L8.05,11.35 L8.05,11.35 Z M16.75,12.15 C16.7166667,12.0497549 16.6330882,12.0333333 16.4997549,12.1 L13.7497549,13.7 C13.4164216,13.9 13.0666667,13.9 12.6997549,13.7 L10.2997549,12.3502451 C10.1997549,12.2835784 10.1164216,12.2835784 10.0497549,12.3502451 L0.899754902,20.8502451 C0.866421569,20.8833333 0.849754902,20.9502451 0.849754902,21.05 C0.849754902,21.0833333 0.883088235,21.133415 0.949754902,21.2 C1.1497549,21.2666667 1.28308824,21.3002451 1.3497549,21.3002451 L24.7998366,21.3002451 C24.8665033,21.3002451 24.933415,21.2669118 24.9998366,21.2 C24.9998366,21.0666667 24.9831699,20.9835784 24.9498366,20.95 L16.75,12.15 L16.75,12.15 Z M25.75,6.75 L25.5502451,6.75 L18.7502451,10.8 C18.6838235,10.8 18.6502451,10.85 18.6502451,10.95 C18.6169118,10.9833333 18.6335784,11.0333333 18.7,11.0997549 L25.5,18.45 C25.5666667,18.5166667 25.6166667,18.5502451 25.65,18.5502451 L25.75,18.5502451 C25.8502451,18.45 25.9002451,18.3835784 25.9002451,18.3502451 L25.9002451,6.9500817 C25.9,6.88333333 25.85,6.81666667 25.75,6.75 L25.75,6.75 Z" id="Shape"></path>
                </g>
            </g>
            <g id="Pinterest" sketch:type="MSLayerGroup" transform="translate(4.000000, 365.000000)" fill="#FFFFFF">
                <g id="share3-copy" sketch:type="MSShapeGroup">
                    <path d="M12.7098958,19.9286458 C11.1067708,19.8046875 10.434375,19.0109375 9.17916667,18.2479167 C8.48854167,21.8703125 7.64427083,25.34375 5.14375,27.1578125 C4.371875,21.6817708 6.27708333,17.5697917 7.1609375,13.2036458 C5.653125,10.6651042 7.34322917,5.55520833 10.5239583,6.81458333 C14.4375,8.36302083 7.134375,16.2526042 12.0364583,17.2385417 C17.15625,18.2671875 19.2458333,8.35625 16.071875,5.13333333 C11.4848958,0.480208333 2.72135417,5.02760417 3.79895833,11.690625 C4.06145833,13.3197917 5.74375,13.8135417 4.47135417,16.0619792 C1.53541667,15.4109375 0.659895833,13.096875 0.772395833,10.009375 C0.953645833,4.9578125 5.3125,1.4203125 9.68229167,0.930729167 C15.2098958,0.311979167 20.3989583,2.95989583 21.1151042,8.15989583 C21.9223958,14.0296875 18.6203125,20.3864583 12.7098958,19.9286458 L12.7098958,19.9286458 Z" id="Shape"></path>
                </g>
            </g>
            <g id="Twitter" sketch:type="MSLayerGroup" transform="translate(0.000000, 340.000000)" fill="#FFFFFF">
                <g id="twitter-copy" sketch:type="MSShapeGroup">
                    <path d="M25.901,6.144 C25.912,6.39 25.918,6.638 25.918,6.886 C25.918,14.437 20.172,23.141 9.659,23.141 C6.432,23.141 3.428,22.198 0.9,20.576 C1.347,20.629 1.802,20.656 2.263,20.656 C4.941,20.656 7.404,19.742 9.36,18.21 C6.86,18.164 4.749,16.512 4.022,14.241 C4.37,14.307 4.729,14.344 5.096,14.344 C5.617,14.344 6.123,14.276 6.602,14.145 C3.988,13.621 2.019,11.312 2.019,8.542 C2.019,8.518 2.019,8.493 2.02,8.47 C2.79,8.897 3.671,9.155 4.607,9.184 C3.075,8.161 2.066,6.411 2.066,4.429 C2.066,3.381 2.347,2.399 2.839,1.555 C5.656,5.013 9.868,7.287 14.616,7.527 C14.518,7.108 14.469,6.673 14.469,6.224 C14.469,3.069 17.027,0.51 20.182,0.51 C21.826,0.51 23.309,1.204 24.353,2.314 C25.656,2.058 26.876,1.584 27.983,0.927 C27.553,2.262 26.65,3.381 25.467,4.089 C26.624,3.951 27.728,3.645 28.749,3.19 C27.987,4.334 27.018,5.341 25.901,6.144 L25.901,6.144 Z" id="Shape"></path>
                </g>
            </g>
            <g id="Facebook" sketch:type="MSLayerGroup" transform="translate(8.000000, 305.000000)" fill="#FFFFFF">
                <g id="facebook2-copy" sketch:type="MSShapeGroup">
                    <path d="M13,14.7 L8.961,14.7 L8.961,29.096 L2.976,29.096 L2.976,14.7 L0.131,14.7 L0.131,9.612 L2.976,9.612 L2.976,6.321 C2.976,3.964 4.096,0.281 9.016,0.281 L13.451,0.298 L13.451,5.237 L10.232,5.237 C9.708,5.237 8.963,5.499 8.963,6.623 L8.963,9.613 L13.523,9.613 L13,14.7 L13,14.7 Z" id="Shape"></path>
                </g>
            </g>
            <g id="CloseX" sketch:type="MSLayerGroup" transform="translate(0.000000, 275.000000)" fill="#FFFFFF">
                <g id="Group" sketch:type="MSShapeGroup">
                    <path d="M12.5,0 C5.5875,0 0,5.5875 0,12.5 C0,19.4125 5.5875,25 12.5,25 C19.4125,25 25,19.4125 25,12.5 C25,5.5875 19.4125,0 12.5,0 L12.5,0 Z M18.75,16.9875 L16.9875,18.75 L12.5,14.2625 L8.0125,18.75 L6.25,16.9875 L10.7375,12.5 L6.25,8.0125 L8.0125,6.25 L12.5,10.7375 L16.9875,6.25 L18.75,8.0125 L14.2625,12.5 L18.75,16.9875 L18.75,16.9875 Z" id="Shape"></path>
                </g>
            </g>
            <g id="CancelX" sketch:type="MSLayerGroup" transform="translate(1.000000, 250.000000)" fill="#FFFFFF">
                <g id="Group" sketch:type="MSShapeGroup">
                    <path d="M18.5416667,2.27958333 L16.7204167,0.458333333 L9.5,7.67875 L2.27958333,0.458333333 L0.458333333,2.27958333 L7.67875,9.5 L0.458333333,16.7204167 L2.27958333,18.5416667 L9.5,11.32125 L16.7204167,18.5416667 L18.5416667,16.7204167 L11.32125,9.5 L18.5416667,2.27958333 Z" id="Shape"></path>
                </g>
            </g>
            <g id="Share" sketch:type="MSLayerGroup" transform="translate(0.000000, 225.000000)" fill="#FFFFFF">
                <g id="Group" sketch:type="MSShapeGroup">
                    <path d="M15.75,14.75 C14.9583333,14.75 14.25,15.0625 13.7083333,15.5520833 L6.28125,11.2291667 C6.33333333,10.9895833 6.375,10.75 6.375,10.5 C6.375,10.25 6.33333333,10.0104167 6.28125,9.77083333 L13.625,5.48958333 C14.1875,6.01041667 14.9270833,6.33333333 15.75,6.33333333 C17.4791667,6.33333333 18.875,4.9375 18.875,3.20833333 C18.875,1.47916667 17.4791667,0.0833333333 15.75,0.0833333333 C14.0208333,0.0833333333 12.625,1.47916667 12.625,3.20833333 C12.625,3.45833333 12.6666667,3.69791667 12.71875,3.9375 L5.375,8.21875 C4.8125,7.69791667 4.07291667,7.375 3.25,7.375 C1.52083333,7.375 0.125,8.77083333 0.125,10.5 C0.125,12.2291667 1.52083333,13.625 3.25,13.625 C4.07291667,13.625 4.8125,13.3020833 5.375,12.78125 L12.7916667,17.1145833 C12.7395833,17.3333333 12.7083333,17.5625 12.7083333,17.7916667 C12.7083333,19.46875 14.0729167,20.8333333 15.75,20.8333333 C17.4270833,20.8333333 18.7916667,19.46875 18.7916667,17.7916667 C18.7916667,16.1145833 17.4270833,14.75 15.75,14.75 L15.75,14.75 Z" id="Shape"></path>
                </g>
            </g>
            <g id="Grid" sketch:type="MSLayerGroup" transform="translate(0.000000, 200.000000)" fill="#FFFFFF">
                <g id="Group" transform="translate(0.120103, 0.000000)" sketch:type="MSShapeGroup">
                    <path d="M0.586405211,9.10584964 L9.55495549,9.10584964 L9.55495549,0 L0.586405211,0 L0.586405211,9.10584964 L0.586405211,9.10584964 Z M0.586405211,19.7293409 L9.55495549,19.7293409 L9.55495549,10.6234912 L0.586405211,10.6234912 L0.586405211,19.7293409 L0.586405211,19.7293409 Z M11.3486655,19.7293409 L20.3172158,19.7293409 L20.3172158,10.6234912 L11.3486655,10.6234912 L11.3486655,19.7293409 L11.3486655,19.7293409 Z M11.3486655,9.10584964 L20.3172158,9.10584964 L20.3172158,0 L11.3486655,0 L11.3486655,9.10584964 L11.3486655,9.10584964 Z" id="Shape"></path>
                </g>
            </g>
            <g id="ArrowDown" sketch:type="MSLayerGroup" transform="translate(0.000000, 175.000000)" fill="#FFFFFF">
                <g id="Group" sketch:type="MSShapeGroup">
                    <path d="M20,10 L18.2375,8.2375 L11.25,15.2125 L11.25,0 L8.75,0 L8.75,15.2125 L1.775,8.225 L0,10 L10,20 L20,10 L20,10 Z" id="Shape"></path>
                </g>
            </g>
            <g id="ArrowUp" sketch:type="MSLayerGroup" transform="translate(0.000000, 150.000000)" fill="#FFFFFF">
                <g id="Group" sketch:type="MSShapeGroup">
                    <path d="M0,10 L1.7625,11.7625 L8.75,4.7875 L8.75,20 L11.25,20 L11.25,4.7875 L18.225,11.775 L20,10 L10,0 L0,10 L0,10 Z" id="Shape"></path>
                </g>
            </g>
            <g id="Arrow-Right" sketch:type="MSLayerGroup" transform="translate(16.069353, 116.259717) scale(-1, 1) translate(-16.069353, -116.259717) translate(0.000000, 85.000000)" fill="#E1E1E1">
                <path d="M30.3184047,60.2582393 L0.0758830541,30.1282039 L30.3184047,0 L31.8851666,1.6538796 L3.30582293,30.1282039 L31.8851666,58.6031386 L30.3184047,60.2582393 Z" id="Shape" sketch:type="MSShapeGroup"></path>
            </g>
            <g id="ArrowLeft" sketch:type="MSLayerGroup" transform="translate(0.000000, 20.000000)" fill="#E1E1E1">
                <path d="M30.3184047,60.2582393 L0.0758830541,30.1282039 L30.3184047,0 L31.8851666,1.6538796 L3.30582293,30.1282039 L31.8851666,58.6031386 L30.3184047,60.2582393 Z" id="Shape" sketch:type="MSShapeGroup"></path>
            </g>
            <g id="DN-Logo" sketch:type="MSLayerGroup">
                <path d="M89.9937352,4.19201169 C90.25377,4.19201169 90.4859652,4.42202605 90.4859652,4.68227426 L90.4859652,8.95710297 C90.4859652,9.23157887 90.25377,9.45032964 89.9937352,9.45032964 L89.4588571,9.45032964 L89.4588571,9.80661477 C89.4588571,10.7237081 88.7107387,11.4730332 87.7967666,11.4730332 L81.9385784,11.4730332 C81.0228293,11.4730332 80.2735261,10.7237081 80.2735261,9.80661477 L80.2735261,7.3884999 C79.7427944,7.73055733 79.4134564,8.30381477 79.4134564,8.98733682 L79.4134564,11.5293512 C79.4134564,11.6651071 79.6018188,11.6799276 79.6024111,11.8168691 C79.6024111,12.0077573 79.2920279,12.0196137 79.180669,12.0196137 C79.0716794,12.0196137 78.8394843,11.9662599 78.8394843,11.830504 C78.8394843,11.6923768 79.030216,11.6651071 79.030216,11.5293512 L79.030216,8.76858605 C79.030216,7.92203836 79.5496934,7.19701887 80.2735261,6.88341682 L80.2735261,3.98630297 C80.2735261,3.07039528 81.0228293,2.32047733 81.9385784,2.32047733 L87.7967666,2.32047733 C88.7107387,2.32047733 89.4588571,3.07039528 89.4588571,3.98630297 L89.4588571,4.19201169 L89.9937352,4.19201169 Z M88.6153728,9.85996862 L88.6153728,3.93117067 C88.6153728,3.507304 88.2581951,3.15161169 87.834676,3.15161169 L81.911331,3.15161169 C81.4878118,3.15161169 81.1324111,3.507304 81.1324111,3.93117067 L81.1324111,6.72039118 L81.8147805,6.72039118 L81.8147805,4.46589477 C81.8147805,4.09538195 82.1299024,3.7817799 82.4965575,3.7817799 L87.2056167,3.7817799 C87.5764181,3.7817799 87.8897631,4.09538195 87.8897631,4.46589477 L87.8897631,9.287304 C87.8897631,9.65663118 87.5764181,9.96904759 87.2056167,9.96904759 L82.4965575,9.96904759 C82.1299024,9.96904759 81.8147805,9.65663118 81.8147805,9.287304 L81.8147805,7.14247938 L81.3361742,7.14247938 C81.2680557,7.14247938 81.202899,7.14247938 81.1324111,7.15552144 L81.1324111,9.85996862 C81.1324111,10.2850209 81.4878118,10.6401204 81.911331,10.6401204 L87.834676,10.6401204 C88.2581951,10.6401204 88.6153728,10.2850209 88.6153728,9.85996862 L88.6153728,9.85996862 Z M84.8730035,8.54983528 C84.0283345,8.54983528 83.3317491,7.96057169 83.2494146,7.14247938 L82.6630035,7.14247938 L82.6630035,8.75435836 C82.6630035,8.95888144 82.8389268,9.13672759 83.0462439,9.13672759 L86.660669,9.13672759 C86.8804251,9.13672759 87.0557561,8.95888144 87.0557561,8.75435836 L87.0557561,5.01069682 C87.0557561,4.80735938 86.8804251,4.62892041 86.660669,4.62892041 L83.0462439,4.62892041 C82.8389268,4.62892041 82.6630035,4.80735938 82.6630035,5.01069682 L82.6630035,6.72039118 L83.2600767,6.72039118 C83.3702509,5.92719733 84.0532125,5.31125682 84.8730035,5.31125682 C85.7615052,5.31125682 86.4847456,6.04991118 86.4847456,6.93795631 C86.4847456,7.81177374 85.7615052,8.54983528 84.8730035,8.54983528 L84.8730035,8.54983528 Z M84.1645714,6.93795631 C84.1645714,7.30550503 84.4909477,7.63274195 84.8593798,7.63274195 C85.2420279,7.63274195 85.5559652,7.30550503 85.5559652,6.93795631 C85.5559652,6.55558708 85.2420279,6.22835015 84.8593798,6.22835015 C84.4909477,6.22835015 84.1645714,6.55558708 84.1645714,6.93795631 L84.1645714,6.93795631 Z M89.883561,8.75435836 L89.883561,4.88620451 C89.883561,4.64196246 89.8965923,4.59987221 89.4588571,4.59987221 L89.4588571,9.05491836 C89.8675679,9.05491836 89.883561,9.00097169 89.883561,8.75435836 L89.883561,8.75435836 Z M89.407324,12.6219194 C89.4878815,12.6758661 89.4588571,12.8525266 89.4878815,12.9485635 C89.4878815,12.9485635 89.4878815,12.9758332 89.4191707,13.0315584 L80.2747108,13.0315584 L80.2036307,12.963384 L80.2036307,12.5940568 C80.7781951,12.5003912 80.356453,11.800863 80.901993,11.800863 C81.24377,11.800863 81.2840488,12.0474763 81.4747805,12.2519994 L88.217324,12.2519994 C88.4779512,12.2519994 88.3375679,11.800863 88.8197282,11.800863 C88.9423415,11.800863 89.051331,11.883265 89.1324808,11.9793019 C89.1721672,12.2259153 89.203561,12.4553368 89.407324,12.6219194 L89.407324,12.6219194 Z M78.9620976,12.7594537 C79.0716794,12.4701573 79.030216,12.1162435 79.209101,12.1304712 C79.331122,12.1423276 79.359554,12.5395173 79.4134564,12.7315912 L79.4134564,13.0315584 L78.9620976,13.0315584 L78.9620976,12.7594537 Z" id="Fill-1" fill="#FEFEFE" sketch:type="MSShapeGroup"></path>
                <g id="Group-5">
                    <mask id="mask-2" sketch:name="Clip 4" fill="white">
                        <use xlink:href="#path-1"></use>
                    </mask>
                    <g id="Clip-4"></g>
                    <path d="M9.03481882,13.9249389 C10.170324,13.9249389 11.1767003,13.7044096 12.0563171,13.2651296 C12.9347491,12.8264425 13.568547,12.2253225 13.9588955,11.4641409 C14.3492439,10.704145 14.5429373,9.52206092 14.5429373,7.92440964 C14.5429373,6.24198503 14.3131115,4.95319323 13.8528676,4.05803426 C13.3926237,3.1634681 12.7683031,2.52618605 11.9810906,2.14796656 C11.1944704,1.76856144 10.0370488,1.57945169 8.51237979,1.57945169 C7.67481882,1.57945169 7.15060279,1.634584 6.93913937,1.74129169 C6.72886063,1.84977785 6.62224042,2.04718708 6.62224042,2.33411221 L6.62283275,13.0256302 C6.62283275,13.3445676 6.70694425,13.5733963 6.87753659,13.7144876 C7.04694425,13.8538004 7.32001045,13.9249389 7.69140418,13.9249389 L9.03481882,13.9249389 Z M-5.92334495e-05,0.683699897 L9.88955749,0.683107077 C11.6872927,0.683107077 13.2646794,0.97596041 14.6234948,1.56166708 C15.9829024,2.14915221 17.0467352,2.98325067 17.8173624,4.06692656 C18.5879895,5.15000964 18.973007,6.3712199 18.973007,7.72700041 C18.973007,9.13554195 18.6205679,10.3609019 17.9168746,11.4024876 C17.2131812,12.4446661 16.1606028,13.2746148 14.7615087,13.8917409 C13.36123,14.5112384 11.8572927,14.8200978 10.2508815,14.8206907 L-5.92334495e-05,14.8206907 L-5.92334495e-05,13.9249389 L1.52579443,13.9249389 C1.89837282,13.9249389 2.17973171,13.8460937 2.36927875,13.6901819 C2.55882578,13.5366414 2.65537631,13.3172978 2.65537631,13.0374866 L2.65537631,2.39991528 C2.65537631,2.11417579 2.55586411,1.90550297 2.35743206,1.77448964 C2.159,1.64466195 1.82196167,1.57945169 1.35224042,1.57945169 L-5.92334495e-05,1.57945169 L-5.92334495e-05,0.683699897 Z" id="Fill-3" fill="#FEFEFE" sketch:type="MSShapeGroup" mask="url(#mask-2)"></path>
                </g>
                <path d="M26.3380348,4.10516349 L23.4521812,9.38008041 L29.2025645,9.38008041 L26.3380348,4.10516349 Z M28.311101,0.600408615 L35.0797073,13.0383758 C35.273993,13.3893255 35.4854564,13.6276394 35.7129129,13.7515389 C35.9243763,13.8695102 36.1992195,13.9311635 36.5374425,13.9382773 C36.5374425,14.0343143 36.5368502,14.8192086 36.5368502,14.8192086 L28.8080697,14.8192086 L28.8080697,13.9406486 L29.6000209,13.9406486 C30.2261185,13.9406486 30.6567456,13.8872948 30.8930871,13.7811799 C31.1288362,13.6744722 31.2467108,13.5327881 31.2467108,13.3567204 C31.2467108,13.2191861 31.1981394,13.0597173 31.0998118,12.8789071 L29.7036794,10.3054732 L22.9457352,10.3054732 L22.3036446,11.4792578 C22.0347247,11.9677419 21.9008571,12.3317337 21.9008571,12.5700476 C21.9008571,12.9755368 22.0957352,13.3057378 22.486676,13.559465 C22.8776167,13.813785 23.4124948,13.9412414 24.0877561,13.9412414 L24.6617282,13.9406486 L24.6617282,14.8192086 L17.8078258,14.8192086 L17.8078258,13.9412414 L18.1987666,13.9412414 C18.6388711,13.9412414 19.0256655,13.8345337 19.3609268,13.6199327 C19.8330174,13.3211512 20.2008571,12.935225 20.4620767,12.4651184 L26.9374774,0.600408615 L28.311101,0.600408615 Z" id="Fill-6" fill="#FEFEFE" sketch:type="MSShapeGroup"></path>
                <path d="M36.7310767,0.681980718 L46.1278711,0.681980718 L46.1278711,1.57832533 L44.4272787,1.57832533 C44.0618084,1.57832533 43.7976272,1.63345764 43.6317735,1.7449079 C43.4671045,1.85695097 43.3841777,2.02175508 43.3841777,2.23576328 L43.3841777,13.1679664 C43.3841777,13.423472 43.4712509,13.6048751 43.6453972,13.7121756 C43.8687073,13.8526741 44.1915296,13.9232197 44.6138641,13.9232197 L46.1278711,13.9232197 L46.1278711,14.8183787 L37.758777,14.8195643 L37.753446,13.9238125 L38.1698571,13.9232197 C38.6668258,13.9232197 39.0145261,13.8597879 39.2176969,13.7329243 C39.4190906,13.6048751 39.5209721,13.4175438 39.5209721,13.1679664 L39.5209721,2.36084841 C39.5209721,2.09348636 39.4273833,1.89726277 39.2407979,1.76862072 C39.0548049,1.64175713 38.7651533,1.57832533 38.3688815,1.57891815 L36.7310767,1.57891815 L36.7310767,0.681980718 Z" id="Fill-8" fill="#FEFEFE" sketch:type="MSShapeGroup"></path>
                <path d="M47.4503763,1.57814749 L47.4503763,0.681802872 L56.8756028,0.681210051 L56.8756028,1.57755467 L55.2869617,1.57755467 C54.8308641,1.57755467 54.5121882,1.64395056 54.3303415,1.77852082 C54.1479024,1.91249826 54.0566829,2.12828492 54.0566829,2.42765928 L54.0572753,12.9294747 C54.0572753,13.3563054 54.1449408,13.6278172 54.3190871,13.7457885 C54.4926411,13.8637598 54.9025366,13.9230418 55.5493659,13.9230418 L58.1959164,13.9230418 C59.181561,13.9230418 60.1014564,13.5631998 60.9550105,12.8452942 C61.8073798,12.1250172 62.4613171,10.9773167 62.9168223,9.39922851 L64.0357422,9.39922851 L63.6187387,14.8182008 L47.4503763,14.8182008 L47.4503763,13.9230418 L49.0674495,13.9230418 C49.4240348,13.9230418 49.693547,13.8524962 49.8753937,13.7119977 C50.0590174,13.5720921 50.1496446,13.3764613 50.1496446,13.1221413 L50.1496446,2.32273005 C50.1496446,2.06129621 50.0554634,1.87159364 49.8694704,1.75421518 C49.6822927,1.63742954 49.3606551,1.57814749 48.9051498,1.57814749 L47.4503763,1.57814749 Z" id="Fill-10" fill="#FEFEFE" sketch:type="MSShapeGroup"></path>
                <path d="M60.6084355,0.680795077 L69.7517108,0.680795077 L69.7517108,1.57713969 L68.4888537,1.57713969 C68.0422334,1.57713969 67.7318502,1.62041559 67.5571115,1.70578174 C67.3847422,1.7911479 67.2970767,1.90496944 67.2970767,2.04487508 C67.2970767,2.20434379 67.3723031,2.38515405 67.5203868,2.58908431 L71.3486446,7.65117867 L74.0496899,3.54293251 C74.274777,3.20621046 74.3879129,2.89379405 74.3879129,2.60805456 C74.3879129,2.28911713 74.2416063,2.03894687 73.948993,1.85398687 C73.6599338,1.66902687 73.2180523,1.57713969 72.6257178,1.57713969 L72.064777,1.57713969 L72.064777,0.680795077 L79.1633136,0.680795077 L79.1633136,1.57713969 C78.3452997,1.58958892 77.687216,1.71467405 77.1914321,1.95476636 C76.6944634,2.19308021 76.2709443,2.57604226 75.9238362,3.10424533 L72.2282613,8.70936328 L72.2288537,13.1484033 C72.2288537,13.4104299 72.3224425,13.6036894 72.5096202,13.7317387 C72.6956132,13.8591951 72.9870418,13.9220341 73.3844983,13.9220341 L75.2864843,13.9220341 L75.2864843,14.817193 L65.2179826,14.8183787 L65.2179826,13.9232197 L67.1087143,13.9226269 C67.5387491,13.9226269 67.8414321,13.8597879 68.0155784,13.7364812 C68.1891324,13.6108033 68.2773902,13.4163582 68.2773902,13.1484033 L68.2767979,9.20377559 L63.3296202,2.66674379 C63.0150906,2.24643405 62.6821986,1.95950892 62.3297596,1.80656123 C61.9773206,1.6524279 61.5378084,1.57713969 61.0070767,1.57713969 L60.6084355,1.57713969 L60.6084355,0.680795077 Z" id="Fill-12" fill="#FEFEFE" sketch:type="MSShapeGroup"></path>
                <path d="M92.0015714,0.680795077 L97.6968676,0.680202256 L107.646902,10.3674823 L107.646902,3.79132431 C107.646902,3.14040738 107.405822,2.62050379 106.924254,2.22924226 C106.445056,1.83916636 105.761502,1.62041559 104.873,1.57595405 L104.873,0.679609436 L111.58415,0.679609436 L111.58415,1.57595405 C110.6453,1.65124226 109.977146,1.86702892 109.56962,2.22094277 C109.163279,2.57485662 108.960108,3.09831713 108.960108,3.79191713 L108.9607,14.8166002 L107.537913,14.8166002 L96.2071463,3.65201149 L96.2071463,11.3812053 C96.2071463,12.2656935 96.4689582,12.9100894 96.9961359,13.3149858 C97.5209443,13.7192894 98.1754739,13.9214412 98.9543937,13.9214412 L99.263,13.9214412 L99.263,14.817193 L91.8517108,14.817193 L91.8511185,13.9220341 L92.3605261,13.9220341 C93.0873206,13.9220341 93.6968328,13.6985407 94.1949861,13.2527397 C94.69077,12.805753 94.9371812,12.2336812 94.9371812,11.5335602 L94.9371812,2.40116021 C94.3833484,1.85161559 93.6784704,1.57654687 92.8184007,1.57654687 L92.0015714,1.57654687 L92.0015714,0.680795077 Z" id="Fill-14" fill="#FEFEFE" sketch:type="MSShapeGroup"></path>
                <path d="M112.442324,0.679668718 L128.448979,0.678483077 L128.806749,5.62023487 L127.716261,5.62023487 C127.459188,4.45593538 127.137551,3.61828 126.751941,3.1066759 C126.367516,2.59507179 125.86107,2.2109241 125.234972,1.95541846 C124.608282,1.7022841 123.788491,1.57542051 122.774415,1.57542051 L120.262916,1.57542051 C119.872568,1.57542051 119.590617,1.63233128 119.415286,1.75089538 C119.240547,1.86886667 119.156436,2.03307795 119.156436,2.24293641 L119.156436,7.12896308 L120.012951,7.12896308 C121.000965,7.12896308 121.765077,6.91139795 122.30884,6.47686051 C122.850233,6.04410154 123.173056,5.34457333 123.270791,4.38183282 L124.390895,4.38183282 L124.390895,10.9656974 L123.270791,10.9656974 C123.196749,9.87550051 122.886366,9.10898359 122.340826,8.66318256 C121.791732,8.21797436 120.967202,7.99388821 119.863091,7.99388821 L119.156436,7.99388821 L119.156436,13.2225651 C119.156436,13.4519867 119.240547,13.6144195 119.415286,13.7098636 C119.683021,13.8503621 120.062707,13.9209077 120.559084,13.9209077 L122.774415,13.9209077 C124.291976,13.9209077 125.531139,13.5468379 126.493091,12.8022554 C127.455042,12.0558944 128.05093,10.9313138 128.28431,9.42732821 L129.402638,9.42732821 L129.132533,14.8160667 L112.442916,14.8166595 L112.442324,13.9209077 L114.091976,13.9209077 C114.462185,13.9209077 114.746505,13.8491764 114.941383,13.7015641 C115.134484,13.5545446 115.23222,13.3571354 115.23222,13.1093364 L115.23222,2.24530769 C115.23222,2.01470051 115.134484,1.84633949 114.941383,1.73785333 C114.746505,1.62936718 114.398213,1.57601333 113.892951,1.57601333 L112.442324,1.57601333 L112.442324,0.679668718 Z" id="Fill-16" fill="#FEFEFE" sketch:type="MSShapeGroup"></path>
                <path d="M129.690571,0.599756513 L136.999979,0.599756513 L136.999979,1.48483754 L136.311094,1.48483754 C135.876321,1.48483754 135.584892,1.52396369 135.433254,1.60280882 C135.281024,1.68106113 135.207575,1.79903241 135.207575,1.95553703 C135.207575,2.06935856 135.234822,2.19859344 135.291094,2.342056 L138.894265,10.5804827 L142.031268,3.39253395 L141.50646,2.19207241 C141.38977,1.93953087 141.230432,1.76642728 141.027261,1.67276164 C140.755972,1.54708369 140.403533,1.48424472 139.959282,1.48424472 L139.074927,1.48424472 L139.074927,0.599756513 L147.476007,0.599163692 L147.476007,1.48424472 L146.700641,1.48424472 C146.136146,1.48424472 145.751129,1.532856 145.551512,1.63126421 C145.351303,1.73263651 145.250014,1.87787754 145.250014,2.06995138 C145.250014,2.15057497 145.270153,2.23712677 145.311617,2.32960677 L148.900571,10.5804827 L151.903115,3.32317395 C152.002627,3.10323754 152.051199,2.88982215 152.051199,2.68233497 C152.051199,2.29818728 151.916739,2.00296267 151.649596,1.79547549 C151.385415,1.58858113 151.033568,1.48424472 150.600571,1.48424472 L150.086425,1.48424472 L150.086425,0.599163692 L156.008585,0.598570872 L156.008585,1.48424472 C155.351686,1.49669395 154.828655,1.61466523 154.439491,1.83756574 C154.048551,2.06105908 153.763638,2.39185292 153.582976,2.83231856 L148.558794,14.8149996 L147.044195,14.8149996 L142.773463,5.00737703 L138.491477,14.8149996 L136.969178,14.8149996 L131.43085,2.19207241 C131.317714,1.92767446 131.169038,1.74508574 130.980676,1.64074933 C130.794683,1.53819138 130.55538,1.48543036 130.263359,1.48543036 L129.690571,1.48543036 L129.690571,0.599756513 Z" id="Fill-18" fill="#FEFEFE" sketch:type="MSShapeGroup"></path>
                <g id="Group-22">
                    <mask id="mask-4" sketch:name="Clip 21" fill="white">
                        <use xlink:href="#path-3"></use>
                    </mask>
                    <g id="Clip-21"></g>
                    <path d="M166.809805,1.86121928 L167.929909,0.632302359 L168.798864,0.632302359 L168.900746,5.38375877 L167.81322,5.38375877 C167.251094,4.01908595 166.45085,2.99765621 165.415449,2.3182839 C164.378864,1.63950441 163.232697,1.29803979 161.978725,1.29803979 C160.908969,1.29803979 160.040014,1.52331159 159.368307,1.97207672 C158.697192,2.42202749 158.362523,2.95971569 158.362523,3.58336287 C158.362523,3.95506133 158.491652,4.29534031 158.758202,4.60597826 C159.023568,4.91543056 159.450049,5.18042133 160.040014,5.39976492 C160.626425,5.61910851 161.660049,5.84912287 163.136146,6.08625108 C164.858655,6.367248 166.051617,6.61682544 166.712662,6.83972595 C167.759317,7.19838236 168.547122,7.67323159 169.069561,8.26368082 C169.593185,8.85413005 169.854997,9.57381415 169.854997,10.419769 C169.854997,11.6854408 169.288132,12.6973854 168.153812,13.4508603 C166.787889,14.3596542 165.099143,14.8149403 163.081059,14.8149403 C161.223498,14.8149403 159.528237,14.314007 157.992314,13.3162901 L156.581373,14.6696993 L155.69761,14.6696993 L155.697017,9.58448492 L156.75315,9.58448492 C157.805728,12.4922695 159.940502,13.9464583 163.158063,13.9464583 C164.475415,13.9464583 165.496599,13.7111085 166.22754,13.2445588 C166.959073,12.778009 167.322767,12.193488 167.322767,11.4939598 C167.322767,11.0042901 167.161652,10.5940583 166.840606,10.2656357 C166.520153,9.93306338 166.021408,9.66451569 165.3497,9.46058544 C164.980084,9.349728 164.067296,9.17366031 162.607192,8.93178954 C160.64301,8.59684595 159.242732,8.25301005 158.398063,7.89672492 C157.559909,7.54103262 156.943882,7.10471672 156.548202,6.58837005 C156.154892,6.07202338 155.957645,5.44304082 155.957645,4.6996439 C155.957645,3.45057108 156.504369,2.43151262 157.59308,1.64187569 C158.682383,0.85283159 160.14308,0.45979159 161.974578,0.45979159 C163.734997,0.45979159 165.346739,0.927526974 166.809805,1.86121928" id="Fill-20" fill="#FEFEFE" sketch:type="MSShapeGroup" mask="url(#mask-4)"></path>
                </g>
            </g>
        </g>
    </g>
</svg>