<?xml version="1.0" encoding="UTF-8" standalone="no"?>
<svg width="30px" height="30px" viewBox="0 0 30 30" version="1.1" xmlns="http://www.w3.org/2000/svg" xmlns:xlink="http://www.w3.org/1999/xlink" xmlns:sketch="http://www.bohemiancoding.com/sketch/ns">
    <!-- Generator: Sketch 3.4.2 (15857) - http://www.bohemiancoding.com/sketch -->
    <title>Share_Email</title>
    <desc>Created with Sketch.</desc>
    <defs></defs>
    <g id="Page-1" stroke="none" stroke-width="1" fill="none" fill-rule="evenodd" sketch:type="MSPage">
        <g id="Share_Email" sketch:type="MSArtboardGroup" fill="#FFFFFF">
            <g id="Oval-2-+-email131-copy" sketch:type="MSLayerGroup" transform="translate(2.000000, 4.000000)">
                <g id="email131-copy" sketch:type="MSShapeGroup">
                    <path d="M25.05,0.7 L1.35,0.7 C1.11666667,0.7 0.916666667,0.775 0.75,0.925 C0.583333333,1.075 0.5,1.28333333 0.5,1.55 L0.5,4.2 C0.5,4.33333333 0.55,4.4 0.65,4.4 L13.1,11.5 L13.2002451,11.55 C13.2666667,11.55 13.3169118,11.5333333 13.3502451,11.5 L25.4002451,4.4 C25.4666667,4.36666667 25.5169118,4.35 25.5502451,4.35 C25.5833333,4.35 25.6335784,4.33333333 25.7002451,4.3 C25.8335784,4.3 25.9002451,4.23333333 25.9002451,4.1 L25.9002451,1.55 C25.9002451,1.28333333 25.8168301,1.075 25.65,0.925 C25.4831699,0.775 25.2833333,0.7 25.05,0.7 L25.05,0.7 Z M8.05,11.35 C8.08333333,11.3166667 8.1,11.266585 8.1,11.2 C8.1,11.0997549 8.06666667,11.05 8,11.05 L0.85,6.9499183 C0.75,6.91658497 0.666666667,6.91658497 0.6,6.9499183 C0.533333333,6.9499183 0.5,6.9999183 0.5,7.0999183 L0.5,17.8499183 C0.5,17.9501634 0.55,18.016585 0.65,18.0499183 L0.75,18.0499183 C0.816666667,18.0499183 0.85,18.0332516 0.85,17.9999183 L8.05,11.35 L8.05,11.35 Z M16.75,12.15 C16.7166667,12.0497549 16.6330882,12.0333333 16.4997549,12.1 L13.7497549,13.7 C13.4164216,13.9 13.0666667,13.9 12.6997549,13.7 L10.2997549,12.3502451 C10.1997549,12.2835784 10.1164216,12.2835784 10.0497549,12.3502451 L0.899754902,20.8502451 C0.866421569,20.8833333 0.849754902,20.9502451 0.849754902,21.05 C0.849754902,21.0833333 0.883088235,21.133415 0.949754902,21.2 C1.1497549,21.2666667 1.28308824,21.3002451 1.3497549,21.3002451 L24.7998366,21.3002451 C24.8665033,21.3002451 24.933415,21.2669118 24.9998366,21.2 C24.9998366,21.0666667 24.9831699,20.9835784 24.9498366,20.95 L16.75,12.15 L16.75,12.15 Z M25.75,6.75 L25.5502451,6.75 L18.7502451,10.8 C18.6838235,10.8 18.6502451,10.85 18.6502451,10.95 C18.6169118,10.9833333 18.6335784,11.0333333 18.7,11.0997549 L25.5,18.45 C25.5666667,18.5166667 25.6166667,18.5502451 25.65,18.5502451 L25.75,18.5502451 C25.8502451,18.45 25.9002451,18.3835784 25.9002451,18.3502451 L25.9002451,6.9500817 C25.9,6.88333333 25.85,6.81666667 25.75,6.75 L25.75,6.75 Z" id="Shape"></path>
                </g>
            </g>
        </g>
    </g>
</svg>