<?xml version="1.0" encoding="UTF-8" standalone="no"?>
<svg width="30px" height="30px" viewBox="0 0 30 30" version="1.1" xmlns="http://www.w3.org/2000/svg" xmlns:xlink="http://www.w3.org/1999/xlink" xmlns:sketch="http://www.bohemiancoding.com/sketch/ns">
    <!-- Generator: Sketch 3.4.2 (15857) - http://www.bohemiancoding.com/sketch -->
    <title>Share_Pinterest</title>
    <desc>Created with Sketch.</desc>
    <defs></defs>
    <g id="Page-1" stroke="none" stroke-width="1" fill="none" fill-rule="evenodd" sketch:type="MSPage">
        <g id="Share_Pinterest" sketch:type="MSArtboardGroup" fill="#FFFFFF">
            <g id="Oval-2-+-share3-copy" sketch:type="MSLayerGroup" transform="translate(4.000000, 1.000000)">
                <g id="share3-copy" sketch:type="MSShapeGroup">
                    <path d="M12.7098958,19.9286458 C11.1067708,19.8046875 10.434375,19.0109375 9.17916667,18.2479167 C8.48854167,21.8703125 7.64427083,25.34375 5.14375,27.1578125 C4.371875,21.6817708 6.27708333,17.5697917 7.1609375,13.2036458 C5.653125,10.6651042 7.34322917,5.55520833 10.5239583,6.81458333 C14.4375,8.36302083 7.134375,16.2526042 12.0364583,17.2385417 C17.15625,18.2671875 19.2458333,8.35625 16.071875,5.13333333 C11.4848958,0.480208333 2.72135417,5.02760417 3.79895833,11.690625 C4.06145833,13.3197917 5.74375,13.8135417 4.47135417,16.0619792 C1.53541667,15.4109375 0.659895833,13.096875 0.772395833,10.009375 C0.953645833,4.9578125 5.3125,1.4203125 9.68229167,0.930729167 C15.2098958,0.311979167 20.3989583,2.95989583 21.1151042,8.15989583 C21.9223958,14.0296875 18.6203125,20.3864583 12.7098958,19.9286458 L12.7098958,19.9286458 Z" id="Shape"></path>
                </g>
            </g>
        </g>
    </g>
</svg>